<svg width="20" height="20" fill="none" xmlns="http://www.w3.org/2000/svg" style="color: rgb(148, 75, 255); user-select: auto;"><rect width="20" height="20" rx="4" fill="currentColor" opacity="0.18" style="user-select: auto;"></rect><path d="M12.348 9.26c.123-.614.184-.922.254-1.013a.5.5 0 01.796 0c.07.091.131.399.254 1.014.083.415.125.623.199.803a2 2 0 001.085 1.085c.18.074.388.116.803.199.615.123.923.184 1.014.254a.5.5 0 010 .796c-.091.07-.399.131-1.014.254-.415.083-.623.125-.803.199a2 2 0 00-1.085 1.085c-.074.18-.116.388-.199.803-.123.615-.184.923-.254 1.014a.5.5 0 01-.796 0c-.07-.091-.131-.399-.254-1.014-.083-.415-.125-.623-.199-.803a2 2 0 00-1.085-1.085c-.18-.074-.388-.116-.803-.199-.615-.123-.923-.184-1.014-.254a.5.5 0 010-.796c.091-.07.399-.131 1.014-.254.415-.083.623-.125.803-.199a2 2 0 001.085-1.085c.074-.18.116-.388.199-.803zM6.348 5.26c.123-.614.184-.922.254-1.013a.5.5 0 01.796 0c.07.091.131.399.254 1.014.083.415.125.623.199.803a2 2 0 001.085 1.085c.18.074.388.116.803.199.615.123.923.184 1.014.254a.5.5 0 010 .796c-.091.07-.399.131-1.014.254-.415.083-.623.125-.803.199a2 2 0 00-1.085 1.085c-.074.18-.116.388-.199.803-.123.615-.184.923-.254 1.014a.5.5 0 01-.796 0c-.07-.091-.131-.399-.254-1.014-.083-.415-.125-.623-.199-.803a2 2 0 00-1.085-1.085c-.18-.074-.388-.116-.803-.199-.615-.123-.923-.184-1.014-.254a.5.5 0 010-.796c.091-.07.399-.131 1.014-.254.415-.083.623-.125.803-.199a2 2 0 001.085-1.085c.074-.18.116-.388.199-.803z" fill="currentColor" style="user-select: auto;"></path></svg>